solid Visualization Toolkit generated SLA File
 facet normal 0.86606613338614769 0.00012237361375402485 0.49992943264651468
  outer loop
   vertex 70.875396728515625 2.6350300312042236 27.771699905395508
   vertex 70.838203430175781 2.357219934463501 27.836200714111328
   vertex 71.650596618652344 2.07069993019104 26.428899765014648
  endloop
 endfacet
 facet normal 0.86603511146843826 -0.00022934458680763125 0.49998313282040824
  outer loop
   vertex 71.650596618652344 2.07069993019104 26.428899765014648
   vertex 70.838203430175781 2.357219934463501 27.836200714111328
   vertex 70.825599670410156 2.07069993019104 27.857900619506836
  endloop
 endfacet
 facet normal 0.86603511146841938 0.00022934468222859589 0.4999831328203973
  outer loop
   vertex 71.650596618652344 2.07069993019104 26.428899765014648
   vertex 70.825599670410156 2.07069993019104 27.857900619506836
   vertex 70.838203430175781 1.7841800451278687 27.836200714111328
  endloop
 endfacet
 facet normal 0.86600306205455235 -7.7010646050713045e-05 0.50003868908465454
  outer loop
   vertex 71.12030029296875 3.3346700668334961 27.347499847412109
   vertex 71.018600463867188 3.1312999725341797 27.523599624633789
   vertex 71.650596618652344 2.07069993019104 26.428899765014648
  endloop
 endfacet
 facet normal 0.86607918732848765 0.00010445842727731854 0.49990682168266465
  outer loop
   vertex 71.650596618652344 2.07069993019104 26.428899765014648
   vertex 71.018600463867188 3.1312999725341797 27.523599624633789
   vertex 70.936203002929688 2.8956999778747559 27.666400909423828
  endloop
 endfacet
 facet normal 0.86603505561371086 -4.8443927448660185e-05 0.49998327982177826
  outer loop
   vertex 71.650596618652344 2.07069993019104 26.428899765014648
   vertex 70.936203002929688 2.8956999778747559 27.666400909423828
   vertex 70.875396728515625 2.6350300312042236 27.771699905395508
  endloop
 endfacet
 facet normal 0.86604731779791555 -4.659045938772665e-05 0.49996203972338293
  outer loop
   vertex 71.507400512695312 3.6956300735473633 26.677099227905273
   vertex 71.368499755859375 3.621190071105957 26.917699813842773
   vertex 71.650596618652344 2.07069993019104 26.428899765014648
  endloop
 endfacet
 facet normal 0.86590514081941139 -0.00015006819578234672 0.50020822122597308
  outer loop
   vertex 71.650596618652344 2.07069993019104 26.428899765014648
   vertex 71.368499755859375 3.621190071105957 26.917699813842773
   vertex 71.23809814453125 3.4996399879455566 27.143400192260742
  endloop
 endfacet
 facet normal 0.86607941536639377 5.1139990416663328e-05 0.4999064349088807
  outer loop
   vertex 71.650596618652344 2.07069993019104 26.428899765014648
   vertex 71.23809814453125 3.4996399879455566 27.143400192260742
   vertex 71.12030029296875 3.3346700668334961 27.347499847412109
  endloop
 endfacet
 facet normal 0.86603449326158333 -3.6331101935754693e-05 0.49998425491329596
  outer loop
   vertex 71.93280029296875 3.621190071105957 25.940200805664062
   vertex 71.793899536132812 3.6956300735473633 26.18079948425293
   vertex 71.650596618652344 2.07069993019104 26.428899765014648
  endloop
 endfacet
 facet normal 0.86593145442696773 0 0.50016268976603628
  outer loop
   vertex 71.650596618652344 2.07069993019104 26.428899765014648
   vertex 71.793899536132812 3.6956300735473633 26.18079948425293
   vertex 71.650596618652344 3.7207000255584717 26.428899765014648
  endloop
 endfacet
 facet normal 0.8661793802703186 0 0.49973321001763216
  outer loop
   vertex 71.650596618652344 2.07069993019104 26.428899765014648
   vertex 71.650596618652344 3.7207000255584717 26.428899765014648
   vertex 71.507400512695312 3.6956300735473633 26.677099227905273
  endloop
 endfacet
 facet normal 0.86599204327408752 5.0283810353342852e-05 0.50005777511954475
  outer loop
   vertex 72.282600402832031 3.1312999725341797 25.334299087524414
   vertex 72.180900573730469 3.3346700668334961 25.510400772094727
   vertex 71.650596618652344 2.07069993019104 26.428899765014648
  endloop
 endfacet
 facet normal 0.86606944681493658 -7.9619753700518214e-05 0.49992370113284745
  outer loop
   vertex 71.650596618652344 2.07069993019104 26.428899765014648
   vertex 72.180900573730469 3.3346700668334961 25.510400772094727
   vertex 72.063102722167969 3.4996399879455566 25.714500427246094
  endloop
 endfacet
 facet normal 0.8660276398390645 -3.1342055677773894e-05 0.49999612603744742
  outer loop
   vertex 71.650596618652344 2.07069993019104 26.428899765014648
   vertex 72.063102722167969 3.4996399879455566 25.714500427246094
   vertex 71.93280029296875 3.621190071105957 25.940200805664062
  endloop
 endfacet
 facet normal 0.86602410435335186 -0.00014490218917549783 0.50000222967735886
  outer loop
   vertex 72.463096618652344 2.357219934463501 25.021699905395508
   vertex 72.4259033203125 2.6350300312042236 25.086200714111328
   vertex 71.650596618652344 2.07069993019104 26.428899765014648
  endloop
 endfacet
 facet normal 0.86596599982897549 0.00017431966946411623 0.50010284617551992
  outer loop
   vertex 71.650596618652344 2.07069993019104 26.428899765014648
   vertex 72.4259033203125 2.6350300312042236 25.086200714111328
   vertex 72.365097045898438 2.8956999778747559 25.191400527954102
  endloop
 endfacet
 facet normal 0.86602339161148656 -2.4427422762909507e-05 0.50000348457289634
  outer loop
   vertex 71.650596618652344 2.07069993019104 26.428899765014648
   vertex 72.365097045898438 2.8956999778747559 25.191400527954102
   vertex 72.282600402832031 3.1312999725341797 25.334299087524414
  endloop
 endfacet
 facet normal 0.86602410391444296 0.00014489726416822292 0.50000223043899394
  outer loop
   vertex 72.4259033203125 1.5063600540161133 25.086200714111328
   vertex 72.463096618652344 1.7841800451278687 25.021699905395508
   vertex 71.650596618652344 2.07069993019104 26.428899765014648
  endloop
 endfacet
 facet normal 0.86601781332195149 7.3470936418030424e-05 0.50001314143838982
  outer loop
   vertex 71.650596618652344 2.07069993019104 26.428899765014648
   vertex 72.463096618652344 1.7841800451278687 25.021699905395508
   vertex 72.475601196289062 2.07069993019104 25
  endloop
 endfacet
 facet normal 0.86601781332195338 -7.3470905849770072e-05 0.50001314143839082
  outer loop
   vertex 71.650596618652344 2.07069993019104 26.428899765014648
   vertex 72.475601196289062 2.07069993019104 25
   vertex 72.463096618652344 2.357219934463501 25.021699905395508
  endloop
 endfacet
 facet normal 0.86599204366546245 -5.0282883378967222e-05 0.50005777444186128
  outer loop
   vertex 72.180900573730469 0.80672299861907959 25.510400772094727
   vertex 72.282600402832031 1.0101000070571899 25.334299087524414
   vertex 71.650596618652344 2.07069993019104 26.428899765014648
  endloop
 endfacet
 facet normal 0.86602339161076114 2.4427423779181836e-05 0.50000348457415311
  outer loop
   vertex 71.650596618652344 2.07069993019104 26.428899765014648
   vertex 72.282600402832031 1.0101000070571899 25.334299087524414
   vertex 72.365097045898438 1.2457000017166138 25.191400527954102
  endloop
 endfacet
 facet normal 0.86596599832853494 -0.00017432488858473163 0.50010284877182709
  outer loop
   vertex 71.650596618652344 2.07069993019104 26.428899765014648
   vertex 72.365097045898438 1.2457000017166138 25.191400527954102
   vertex 72.4259033203125 1.5063600540161133 25.086200714111328
  endloop
 endfacet
 facet normal 0.86603449327812398 3.6330978498639475e-05 0.49998425488465431
  outer loop
   vertex 71.793899536132812 0.44576400518417358 26.18079948425293
   vertex 71.93280029296875 0.52020400762557983 25.940200805664062
   vertex 71.650596618652344 2.07069993019104 26.428899765014648
  endloop
 endfacet
 facet normal 0.86602763981640807 3.1341922311136844e-05 0.4999961260766983
  outer loop
   vertex 71.650596618652344 2.07069993019104 26.428899765014648
   vertex 71.93280029296875 0.52020400762557983 25.940200805664062
   vertex 72.063102722167969 0.64175498485565186 25.714500427246094
  endloop
 endfacet
 facet normal 0.86606944711224754 7.9619824706059829e-05 0.49992370061777369
  outer loop
   vertex 71.650596618652344 2.07069993019104 26.428899765014648
   vertex 72.063102722167969 0.64175498485565186 25.714500427246094
   vertex 72.180900573730469 0.80672299861907959 25.510400772094727
  endloop
 endfacet
 facet normal 0.8660473177767164 4.6590301094591811e-05 0.49996203976011916
  outer loop
   vertex 71.368499755859375 0.52020400762557983 26.917699813842773
   vertex 71.507400512695312 0.44576400518417358 26.677099227905273
   vertex 71.650596618652344 2.07069993019104 26.428899765014648
  endloop
 endfacet
 facet normal 0.8661793802703186 0 0.49973321001763216
  outer loop
   vertex 71.650596618652344 2.07069993019104 26.428899765014648
   vertex 71.507400512695312 0.44576400518417358 26.677099227905273
   vertex 71.650596618652344 0.42069700360298157 26.428899765014648
  endloop
 endfacet
 facet normal 0.86593145442696773 -0 0.50016268976603628
  outer loop
   vertex 71.650596618652344 2.07069993019104 26.428899765014648
   vertex 71.650596618652344 0.42069700360298157 26.428899765014648
   vertex 71.793899536132812 0.44576400518417358 26.18079948425293
  endloop
 endfacet
 facet normal 0.86600306265394167 7.7009226323592457e-05 0.5000386880468074
  outer loop
   vertex 71.018600463867188 1.0101000070571899 27.523599624633789
   vertex 71.12030029296875 0.80672299861907959 27.347499847412109
   vertex 71.650596618652344 2.07069993019104 26.428899765014648
  endloop
 endfacet
 facet normal 0.86607941555734635 -5.1140036039662541e-05 0.49990643457805389
  outer loop
   vertex 71.650596618652344 2.07069993019104 26.428899765014648
   vertex 71.12030029296875 0.80672299861907959 27.347499847412109
   vertex 71.23809814453125 0.64175498485565186 27.143400192260742
  endloop
 endfacet
 facet normal 0.86590514092801996 0.00015006755722131795 0.50020822103815343
  outer loop
   vertex 71.650596618652344 2.07069993019104 26.428899765014648
   vertex 71.23809814453125 0.64175498485565186 27.143400192260742
   vertex 71.368499755859375 0.52020400762557983 26.917699813842773
  endloop
 endfacet
 facet normal 0.86606613301545832 -0.00012236945445510524 0.49992943328970646
  outer loop
   vertex 70.838203430175781 1.7841800451278687 27.836200714111328
   vertex 70.875396728515625 1.5063600540161133 27.771699905395508
   vertex 71.650596618652344 2.07069993019104 26.428899765014648
  endloop
 endfacet
 facet normal 0.86603505519704249 4.8445377629614476e-05 0.49998328054336061
  outer loop
   vertex 71.650596618652344 2.07069993019104 26.428899765014648
   vertex 70.875396728515625 1.5063600540161133 27.771699905395508
   vertex 70.936203002929688 1.2457000017166138 27.666400909423828
  endloop
 endfacet
 facet normal 0.86607918732538436 -0.00010445843162078201 0.49990682168804007
  outer loop
   vertex 71.650596618652344 2.07069993019104 26.428899765014648
   vertex 70.936203002929688 1.2457000017166138 27.666400909423828
   vertex 71.018600463867188 1.0101000070571899 27.523599624633789
  endloop
 endfacet
 facet normal 0.86605088333284819 -6.9886244507578736e-05 -0.49995586064602338
  outer loop
   vertex 70.875396728515625 1.5063600540161133 0.086175300180912018
   vertex 70.838203430175781 1.7841800451278687 0.021708199754357338
   vertex 71.650596618652344 2.07069993019104 1.4289400577545166
  endloop
 endfacet
 facet normal 0.86602590338154273 0.00021325686285419523 -0.49999908919286368
  outer loop
   vertex 71.650596618652344 2.07069993019104 1.4289400577545166
   vertex 70.838203430175781 1.7841800451278687 0.021708199754357338
   vertex 70.825599670410156 2.07069993019104 0
  endloop
 endfacet
 facet normal 0.86602590338155916 -0.0002132567741267152 -0.49999908919287311
  outer loop
   vertex 71.650596618652344 2.07069993019104 1.4289400577545166
   vertex 70.825599670410156 2.07069993019104 0
   vertex 70.838203430175781 2.357219934463501 0.021708199754357338
  endloop
 endfacet
 facet normal 0.86601092575868766 2.5830670518432412e-05 -0.50002507517059336
  outer loop
   vertex 71.12030029296875 0.80672299861907959 0.51043599843978882
   vertex 71.018600463867188 1.0101000070571899 0.33430901169776917
   vertex 71.650596618652344 2.07069993019104 1.4289400577545166
  endloop
 endfacet
 facet normal 0.86610745604850781 -0.00020431978929256626 -0.49985781261335299
  outer loop
   vertex 71.650596618652344 2.07069993019104 1.4289400577545166
   vertex 71.018600463867188 1.0101000070571899 0.33430901169776917
   vertex 70.936203002929688 1.2457000017166138 0.19144199788570404
  endloop
 endfacet
 facet normal 0.86602053658731537 9.6858410363285927e-05 -0.50000842075655771
  outer loop
   vertex 71.650596618652344 2.07069993019104 1.4289400577545166
   vertex 70.936203002929688 1.2457000017166138 0.19144199788570404
   vertex 70.875396728515625 1.5063600540161133 0.086175300180912018
  endloop
 endfacet
 facet normal 0.86603977378082253 2.7903921820026508e-05 -0.49997510883146262
  outer loop
   vertex 71.507400512695312 0.44576400518417358 1.1808099746704102
   vertex 71.368499755859375 0.52020400762557983 0.94021499156951904
   vertex 71.650596618652344 2.07069993019104 1.4289400577545166
  endloop
 endfacet
 facet normal 0.86593612092781225 0.00010333909297211472 -0.50015459989239863
  outer loop
   vertex 71.650596618652344 2.07069993019104 1.4289400577545166
   vertex 71.368499755859375 0.52020400762557983 0.94021499156951904
   vertex 71.23809814453125 0.64175498485565186 0.71447098255157471
  endloop
 endfacet
 facet normal 0.86602782782768906 -2.5331212810089514e-06 -0.49999580140400968
  outer loop
   vertex 71.650596618652344 2.07069993019104 1.4289400577545166
   vertex 71.23809814453125 0.64175498485565186 0.71447098255157471
   vertex 71.12030029296875 0.80672299861907959 0.51043599843978882
  endloop
 endfacet
 facet normal 0.86603678858186151 2.800708688774728e-05 -0.49998027964952696
  outer loop
   vertex 71.93280029296875 0.52020400762557983 1.9176700115203857
   vertex 71.793899536132812 0.44576400518417358 1.6770700216293335
   vertex 71.650596618652344 2.07069993019104 1.4289400577545166
  endloop
 endfacet
 facet normal 0.86595736815227298 0 -0.50011782266060933
  outer loop
   vertex 71.650596618652344 2.07069993019104 1.4289400577545166
   vertex 71.793899536132812 0.44576400518417358 1.6770700216293335
   vertex 71.650596618652344 0.42069700360298157 1.4289400577545166
  endloop
 endfacet
 facet normal 0.86611889450950319 0 -0.49983803434076146
  outer loop
   vertex 71.650596618652344 2.07069993019104 1.4289400577545166
   vertex 71.650596618652344 0.42069700360298157 1.4289400577545166
   vertex 71.507400512695312 0.44576400518417358 1.1808099746704102
  endloop
 endfacet
 facet normal 0.86600549722191356 -3.2047151450838985e-05 -0.50003447656577305
  outer loop
   vertex 72.282600402832031 1.0101000070571899 2.5235700607299805
   vertex 72.180900573730469 0.80672299861907959 2.3474500179290771
   vertex 71.650596618652344 2.07069993019104 1.4289400577545166
  endloop
 endfacet
 facet normal 0.86603057607718481 1.0038511554629797e-05 -0.49999104111838599
  outer loop
   vertex 71.650596618652344 2.07069993019104 1.4289400577545166
   vertex 72.180900573730469 0.80672299861907959 2.3474500179290771
   vertex 72.063102722167969 0.64175498485565186 2.1434099674224854
  endloop
 endfacet
 facet normal 0.86606208131681683 4.6421310658391916e-05 -0.49993646511356349
  outer loop
   vertex 71.650596618652344 2.07069993019104 1.4289400577545166
   vertex 72.063102722167969 0.64175498485565186 2.1434099674224854
   vertex 71.93280029296875 0.52020400762557983 1.9176700115203857
  endloop
 endfacet
 facet normal 0.866022346953087 7.2467782086921046e-05 -0.50000528929831101
  outer loop
   vertex 72.463096618652344 1.7841800451278687 2.836169958114624
   vertex 72.4259033203125 1.5063600540161133 2.7717099189758301
   vertex 71.650596618652344 2.07069993019104 1.4289400577545166
  endloop
 endfacet
 facet normal 0.86599669882129948 -6.8462507509562596e-05 -0.50004971047236535
  outer loop
   vertex 71.650596618652344 2.07069993019104 1.4289400577545166
   vertex 72.4259033203125 1.5063600540161133 2.7717099189758301
   vertex 72.365097045898438 1.2457000017166138 2.6664400100708008
  endloop
 endfacet
 facet normal 0.86601099888576205 -1.8935308039935825e-05 -0.50002494882789461
  outer loop
   vertex 71.650596618652344 2.07069993019104 1.4289400577545166
   vertex 72.365097045898438 1.2457000017166138 2.6664400100708008
   vertex 72.282600402832031 1.0101000070571899 2.5235700607299805
  endloop
 endfacet
 facet normal 0.8660223471727565 -7.2470245296654465e-05 -0.50000528891748042
  outer loop
   vertex 72.4259033203125 2.6350300312042236 2.7717099189758301
   vertex 72.463096618652344 2.357219934463501 2.836169958114624
   vertex 71.650596618652344 2.07069993019104 1.4289400577545166
  endloop
 endfacet
 facet normal 0.86602391734342066 -9.0294236812562425e-05 -0.50000256642952035
  outer loop
   vertex 71.650596618652344 2.07069993019104 1.4289400577545166
   vertex 72.463096618652344 2.357219934463501 2.836169958114624
   vertex 72.475601196289062 2.07069993019104 2.8578801155090332
  endloop
 endfacet
 facet normal 0.86602391734341777 9.0294274380327513e-05 -0.50000256642951868
  outer loop
   vertex 71.650596618652344 2.07069993019104 1.4289400577545166
   vertex 72.475601196289062 2.07069993019104 2.8578801155090332
   vertex 72.463096618652344 1.7841800451278687 2.836169958114624
  endloop
 endfacet
 facet normal 0.86600549697250828 3.2047742230329851e-05 -0.50003447699767789
  outer loop
   vertex 72.180900573730469 3.3346700668334961 2.3474500179290771
   vertex 72.282600402832031 3.1312999725341797 2.5235700607299805
   vertex 71.650596618652344 2.07069993019104 1.4289400577545166
  endloop
 endfacet
 facet normal 0.86601099888519961 1.8935307252240568e-05 -0.50002494882886883
  outer loop
   vertex 71.650596618652344 2.07069993019104 1.4289400577545166
   vertex 72.282600402832031 3.1312999725341797 2.5235700607299805
   vertex 72.365097045898438 2.8956999778747559 2.6664400100708008
  endloop
 endfacet
 facet normal 0.86599669941025359 6.8460458023310053e-05 -0.5000497094526829
  outer loop
   vertex 71.650596618652344 2.07069993019104 1.4289400577545166
   vertex 72.365097045898438 2.8956999778747559 2.6664400100708008
   vertex 72.4259033203125 2.6350300312042236 2.7717099189758301
  endloop
 endfacet
 facet normal 0.86603678856911137 -2.8007182043473881e-05 -0.49998027967160669
  outer loop
   vertex 71.793899536132812 3.6956300735473633 1.6770700216293335
   vertex 71.93280029296875 3.621190071105957 1.9176700115203857
   vertex 71.650596618652344 2.07069993019104 1.4289400577545166
  endloop
 endfacet
 facet normal 0.86606208135036322 -4.6421508189323978e-05 -0.4999364650554311
  outer loop
   vertex 71.650596618652344 2.07069993019104 1.4289400577545166
   vertex 71.93280029296875 3.621190071105957 1.9176700115203857
   vertex 72.063102722167969 3.4996399879455566 2.1434099674224854
  endloop
 endfacet
 facet normal 0.86603057603968914 -1.0038502593173056e-05 -0.49999104118333232
  outer loop
   vertex 71.650596618652344 2.07069993019104 1.4289400577545166
   vertex 72.063102722167969 3.4996399879455566 2.1434099674224854
   vertex 72.180900573730469 3.3346700668334961 2.3474500179290771
  endloop
 endfacet
 facet normal 0.86603977379352126 -2.7904016625972625e-05 -0.49997510880946094
  outer loop
   vertex 71.368499755859375 3.621190071105957 0.94021499156951904
   vertex 71.507400512695312 3.6956300735473633 1.1808099746704102
   vertex 71.650596618652344 2.07069993019104 1.4289400577545166
  endloop
 endfacet
 facet normal 0.86611889450950319 0 -0.49983803434076146
  outer loop
   vertex 71.650596618652344 2.07069993019104 1.4289400577545166
   vertex 71.507400512695312 3.6956300735473633 1.1808099746704102
   vertex 71.650596618652344 3.7207000255584717 1.4289400577545166
  endloop
 endfacet
 facet normal 0.86595736815227298 0 -0.50011782266060933
  outer loop
   vertex 71.650596618652344 2.07069993019104 1.4289400577545166
   vertex 71.650596618652344 3.7207000255584717 1.4289400577545166
   vertex 71.793899536132812 3.6956300735473633 1.6770700216293335
  endloop
 endfacet
 facet normal 0.86601092555767056 -2.5831146692021374e-05 -0.500025075518717
  outer loop
   vertex 71.018600463867188 3.1312999725341797 0.33430901169776917
   vertex 71.12030029296875 3.3346700668334961 0.51043599843978882
   vertex 71.650596618652344 2.07069993019104 1.4289400577545166
  endloop
 endfacet
 facet normal 0.86602782781822707 2.533119019569927e-06 -0.49999580142039846
  outer loop
   vertex 71.650596618652344 2.07069993019104 1.4289400577545166
   vertex 71.12030029296875 3.3346700668334961 0.51043599843978882
   vertex 71.23809814453125 3.4996399879455566 0.71447098255157471
  endloop
 endfacet
 facet normal 0.86593612085305616 -0.00010333953268410868 -0.50015460002173551
  outer loop
   vertex 71.650596618652344 2.07069993019104 1.4289400577545166
   vertex 71.23809814453125 3.4996399879455566 0.71447098255157471
   vertex 71.368499755859375 3.621190071105957 0.94021499156951904
  endloop
 endfacet
 facet normal 0.86605088354468263 6.9888619957423159e-05 -0.4999558602787405
  outer loop
   vertex 70.838203430175781 2.357219934463501 0.021708199754357338
   vertex 70.875396728515625 2.6350300312042236 0.086175300180912018
   vertex 71.650596618652344 2.07069993019104 1.4289400577545166
  endloop
 endfacet
 facet normal 0.86602053742057916 -9.6855510829929294e-05 -0.5000084193138965
  outer loop
   vertex 71.650596618652344 2.07069993019104 1.4289400577545166
   vertex 70.875396728515625 2.6350300312042236 0.086175300180912018
   vertex 70.936203002929688 2.8956999778747559 0.19144199788570404
  endloop
 endfacet
 facet normal 0.86610745605457728 0.00020431978079468897 -0.49985781260283979
  outer loop
   vertex 71.650596618652344 2.07069993019104 1.4289400577545166
   vertex 70.936203002929688 2.8956999778747559 0.19144199788570404
   vertex 71.018600463867188 3.1312999725341797 0.33430901169776917
  endloop
 endfacet
endsolid
